<mxfile host="65bd71144e">
    <diagram id="-ZCJrtlesWqcPeafxE6e" name="Page-1">
        <mxGraphModel dx="519" dy="397" grid="1" gridSize="10" guides="1" tooltips="1" connect="1" arrows="1" fold="1" page="1" pageScale="1" pageWidth="850" pageHeight="1100" math="0" shadow="0">
            <root>
                <mxCell id="0"/>
                <mxCell id="1" parent="0"/>
                <mxCell id="6" value="&lt;font color=&quot;#1a1a1a&quot;&gt;&lt;br&gt;&lt;/font&gt;" style="rounded=1;whiteSpace=wrap;html=1;fillColor=#e1d5e7;strokeColor=#9673a6;" parent="1" vertex="1">
                    <mxGeometry x="410" y="120" width="100" height="225.82" as="geometry"/>
                </mxCell>
                <mxCell id="9" value="&lt;span style=&quot;font-size: 10px;&quot;&gt;&lt;font color=&quot;#000000&quot; style=&quot;font-size: 10px;&quot;&gt;Login&lt;/font&gt;&lt;/span&gt;" style="rounded=1;whiteSpace=wrap;html=1;fillColor=#f5f5f5;strokeColor=none;gradientColor=none;fontSize=10;" parent="1" vertex="1">
                    <mxGeometry x="414.90000000000003" y="204.02999999999997" width="90.19" height="25.97" as="geometry"/>
                </mxCell>
                <mxCell id="10" value="&lt;span style=&quot;font-size: 10px;&quot;&gt;&lt;font color=&quot;#000000&quot; style=&quot;font-size: 10px;&quot;&gt;&lt;span style=&quot;font-size: 10px;&quot;&gt;Exception&lt;/span&gt;&lt;/font&gt;&lt;/span&gt;" style="rounded=1;whiteSpace=wrap;html=1;fillColor=#FFFFFF;strokeColor=none;gradientColor=none;fontStyle=0;fontSize=10;" parent="1" vertex="1">
                    <mxGeometry x="414.90000000000003" y="169.5" width="90.19" height="25.56" as="geometry"/>
                </mxCell>
                <mxCell id="11" value="&lt;div style=&quot;font-size: 10px;&quot;&gt;&lt;font color=&quot;#000000&quot; style=&quot;font-size: 10px;&quot;&gt;&lt;span style=&quot;font-size: 10px;&quot;&gt;Configuration&lt;/span&gt;&lt;/font&gt;&lt;/div&gt;" style="rounded=1;whiteSpace=wrap;html=1;fillColor=#f5f5f5;strokeColor=none;gradientColor=none;fontStyle=0;fontSize=10;" parent="1" vertex="1">
                    <mxGeometry x="414.90000000000003" y="238.72" width="90.19" height="25.75" as="geometry"/>
                </mxCell>
                <mxCell id="18" value="&lt;b style=&quot;&quot;&gt;&lt;br&gt;&lt;/b&gt;" style="rounded=1;whiteSpace=wrap;html=1;fillColor=none;strokeColor=#000000;rotation=-90;gradientColor=#ea6b66;" parent="1" vertex="1">
                    <mxGeometry x="243.4" y="270.48999999999995" width="86.37" height="238.91" as="geometry"/>
                </mxCell>
                <mxCell id="29" value="" style="edgeStyle=none;html=1;fontColor=#000000;" edge="1" parent="1" source="20" target="22">
                    <mxGeometry relative="1" as="geometry"/>
                </mxCell>
                <mxCell id="20" value="&lt;font color=&quot;#1a1a1a&quot;&gt;&lt;br&gt;&lt;/font&gt;" style="rounded=1;whiteSpace=wrap;html=1;fillColor=#cdeb8b;strokeColor=#36393d;rotation=-90;" parent="1" vertex="1">
                    <mxGeometry x="250" y="34.94" width="73.18" height="235.55" as="geometry"/>
                </mxCell>
                <mxCell id="22" value="&lt;span style=&quot;color: rgb(26, 26, 26);&quot;&gt;&lt;b&gt;User Interface&lt;/b&gt;&lt;/span&gt;" style="rounded=1;whiteSpace=wrap;html=1;horizontal=0;fillColor=#FFFFFF;strokeColor=#000000;fillStyle=solid;" parent="1" vertex="1">
                    <mxGeometry x="180.67" y="119.51" width="40" height="66.41" as="geometry"/>
                </mxCell>
                <mxCell id="30" value="&lt;font color=&quot;#1a1a1a&quot;&gt;&lt;br&gt;&lt;/font&gt;" style="rounded=1;whiteSpace=wrap;html=1;fillColor=#b0e3e6;strokeColor=#0e8088;rotation=-90;" vertex="1" parent="1">
                    <mxGeometry x="250" y="110.49" width="73.18" height="235.55" as="geometry"/>
                </mxCell>
                <mxCell id="28" value="Entities" style="sketch=0;pointerEvents=1;shadow=0;dashed=0;html=1;strokeColor=none;fillColor=#505050;labelPosition=center;verticalLabelPosition=bottom;verticalAlign=top;outlineConnect=0;align=center;shape=mxgraph.office.concepts.folder;fontColor=#000000;" vertex="1" parent="1">
                    <mxGeometry x="350" y="203.63" width="30" height="26.37" as="geometry"/>
                </mxCell>
                <mxCell id="31" value="&lt;span style=&quot;color: rgb(26, 26, 26);&quot;&gt;&lt;b&gt;Business&lt;br&gt;&lt;/b&gt;&lt;/span&gt;" style="rounded=1;whiteSpace=wrap;html=1;fillColor=#f5f5f5;strokeColor=#666666;gradientColor=none;horizontal=0;" vertex="1" parent="1">
                    <mxGeometry x="180.67" y="195.06" width="40" height="66.41" as="geometry"/>
                </mxCell>
                <mxCell id="32" value="&lt;font color=&quot;#1a1a1a&quot;&gt;&lt;br&gt;&lt;/font&gt;" style="rounded=1;whiteSpace=wrap;html=1;fillColor=#fad7ac;strokeColor=#b46504;rotation=-90;" vertex="1" parent="1">
                    <mxGeometry x="250" y="185.83999999999997" width="73.18" height="235.55" as="geometry"/>
                </mxCell>
                <mxCell id="33" value="&lt;span style=&quot;color: rgb(26, 26, 26);&quot;&gt;&lt;b&gt;Data&lt;br&gt;&lt;/b&gt;&lt;/span&gt;" style="rounded=1;whiteSpace=wrap;html=1;fillColor=#f5f5f5;strokeColor=#666666;gradientColor=none;horizontal=0;" vertex="1" parent="1">
                    <mxGeometry x="180.67" y="270.40999999999997" width="40" height="66.41" as="geometry"/>
                </mxCell>
                <mxCell id="34" value="&lt;span style=&quot;color: rgb(26, 26, 26); font-size: 10px;&quot;&gt;&lt;span style=&quot;font-size: 10px;&quot;&gt;Data Access Component &lt;br style=&quot;font-size: 10px;&quot;&gt;DAC&lt;br style=&quot;font-size: 10px;&quot;&gt;&lt;/span&gt;&lt;/span&gt;" style="rounded=1;whiteSpace=wrap;html=1;fillColor=#f5f5f5;strokeColor=#666666;gradientColor=none;horizontal=1;fontSize=10;fontStyle=0" vertex="1" parent="1">
                    <mxGeometry x="228.93" y="274.43" width="74.89" height="58.37" as="geometry"/>
                </mxCell>
                <mxCell id="35" value="&lt;span style=&quot;&quot;&gt;&lt;font color=&quot;#000000&quot;&gt;&lt;b&gt;Framework&lt;/b&gt;&lt;/font&gt;&lt;/span&gt;" style="rounded=1;whiteSpace=wrap;html=1;fillColor=#f5f5f5;strokeColor=#000000;gradientColor=none;" vertex="1" parent="1">
                    <mxGeometry x="414.90000000000003" y="130" width="90.19" height="25.56" as="geometry"/>
                </mxCell>
                <mxCell id="36" value="&lt;span style=&quot;color: rgb(26, 26, 26); font-size: 10px;&quot;&gt;&lt;span style=&quot;font-size: 10px;&quot;&gt;Data &lt;br&gt;Helper&lt;br style=&quot;font-size: 10px;&quot;&gt;&lt;/span&gt;&lt;/span&gt;" style="rounded=1;whiteSpace=wrap;html=1;fillColor=#f5f5f5;strokeColor=#666666;gradientColor=none;horizontal=1;fontSize=10;fontStyle=0" vertex="1" parent="1">
                    <mxGeometry x="310" y="274.43" width="60" height="58.37" as="geometry"/>
                </mxCell>
                <mxCell id="38" value="&lt;span style=&quot;color: rgb(26, 26, 26);&quot;&gt;&lt;span&gt;Data&lt;br&gt;Source&lt;br&gt;&lt;/span&gt;&lt;/span&gt;" style="rounded=1;whiteSpace=wrap;html=1;fillColor=#f5f5f5;strokeColor=#666666;gradientColor=none;horizontal=0;fontStyle=0" vertex="1" parent="1">
                    <mxGeometry x="180.67" y="356.73999999999995" width="40" height="66.41" as="geometry"/>
                </mxCell>
                <mxCell id="40" value="" style="shape=image;verticalLabelPosition=bottom;labelBackgroundColor=default;verticalAlign=top;aspect=fixed;imageAspect=0;image=https://www.aprendexojo.com/wp-content/uploads/2018/03/Sqlite.png;" vertex="1" parent="1">
                    <mxGeometry x="250" y="356.73999999999995" width="50" height="50" as="geometry"/>
                </mxCell>
                <mxCell id="41" value="" style="shape=image;verticalLabelPosition=bottom;labelBackgroundColor=default;verticalAlign=top;aspect=fixed;imageAspect=0;image=https://www.guru99.com/images/database-testing.png;" vertex="1" parent="1">
                    <mxGeometry x="328.60999999999996" y="355.35" width="51.39" height="51.39" as="geometry"/>
                </mxCell>
                <mxCell id="42" value="&lt;span style=&quot;color: rgb(26, 26, 26); font-size: 10px;&quot;&gt;&lt;span style=&quot;font-size: 10px;&quot;&gt;Business&lt;br&gt;Logic&lt;br style=&quot;font-size: 10px;&quot;&gt;&lt;/span&gt;&lt;/span&gt;" style="rounded=1;whiteSpace=wrap;html=1;fillColor=#f5f5f5;strokeColor=#666666;gradientColor=none;horizontal=1;fontSize=10;fontStyle=0" vertex="1" parent="1">
                    <mxGeometry x="235.11" y="199.08" width="74.89" height="58.37" as="geometry"/>
                </mxCell>
                <mxCell id="43" value="&lt;span style=&quot;color: rgb(26, 26, 26); font-size: 10px;&quot;&gt;&lt;span style=&quot;font-size: 10px;&quot;&gt;UI&lt;br&gt;Components&lt;br style=&quot;font-size: 10px;&quot;&gt;&lt;/span&gt;&lt;/span&gt;" style="rounded=1;whiteSpace=wrap;html=1;fillColor=#f5f5f5;strokeColor=#666666;gradientColor=none;horizontal=1;fontSize=10;fontStyle=0" vertex="1" parent="1">
                    <mxGeometry x="235.11" y="123.53000000000002" width="74.89" height="58.37" as="geometry"/>
                </mxCell>
                <mxCell id="44" value="&lt;span style=&quot;color: rgb(26, 26, 26); font-size: 10px;&quot;&gt;&lt;span style=&quot;font-size: 10px;&quot;&gt;SQLite&lt;br style=&quot;font-size: 10px;&quot;&gt;&lt;/span&gt;&lt;/span&gt;" style="rounded=1;whiteSpace=wrap;html=1;fillColor=#f5f5f5;strokeColor=#666666;gradientColor=none;horizontal=1;fontSize=10;fontStyle=0" vertex="1" parent="1">
                    <mxGeometry x="249.25" y="407.19" width="46.6" height="18.37" as="geometry"/>
                </mxCell>
                <mxCell id="45" value="&lt;span style=&quot;color: rgb(26, 26, 26); font-size: 10px;&quot;&gt;&lt;span style=&quot;font-size: 10px;&quot;&gt;Database&lt;br style=&quot;font-size: 10px;&quot;&gt;&lt;/span&gt;&lt;/span&gt;" style="rounded=1;whiteSpace=wrap;html=1;fillColor=#f5f5f5;strokeColor=#666666;gradientColor=none;horizontal=1;fontSize=10;fontStyle=0" vertex="1" parent="1">
                    <mxGeometry x="324.8" y="406.74" width="59" height="18.37" as="geometry"/>
                </mxCell>
                <mxCell id="47" value="&lt;span style=&quot;&quot;&gt;&lt;font color=&quot;#000000&quot;&gt;&lt;b&gt;Utility&lt;/b&gt;&lt;/font&gt;&lt;/span&gt;" style="rounded=1;whiteSpace=wrap;html=1;fillColor=#f5f5f5;strokeColor=#000000;gradientColor=none;horizontal=0;rotation=-180;" vertex="1" parent="1">
                    <mxGeometry x="520" y="175.65" width="20" height="114.52" as="geometry"/>
                </mxCell>
            </root>
        </mxGraphModel>
    </diagram>
</mxfile>